<?xml version="1.0" encoding="utf-8" standalone="no"?>
<!DOCTYPE svg PUBLIC "-//W3C//DTD SVG 1.1//EN"
  "http://www.w3.org/Graphics/SVG/1.1/DTD/svg11.dtd">
<svg xmlns:xlink="http://www.w3.org/1999/xlink" width="250.904531pt" height="171.404pt" viewBox="0 0 250.904531 171.404" xmlns="http://www.w3.org/2000/svg" version="1.1">
 <metadata>
  <rdf:RDF xmlns:dc="http://purl.org/dc/elements/1.1/" xmlns:cc="http://creativecommons.org/ns#" xmlns:rdf="http://www.w3.org/1999/02/22-rdf-syntax-ns#">
   <cc:Work>
    <dc:type rdf:resource="http://purl.org/dc/dcmitype/StillImage"/>
    <dc:date>2026-08-23T12:48:49.515500</dc:date>
    <dc:format>image/svg+xml</dc:format>
    <dc:creator>
     <cc:Agent>
      <dc:title>Matplotlib v3.10.9, https://matplotlib.org/</dc:title>
     </cc:Agent>
    </dc:creator>
   </cc:Work>
  </rdf:RDF>
 </metadata>
 <defs>
  <style type="text/css">*{stroke-linejoin: round; stroke-linecap: butt}</style>
 </defs>
 <g id="figure_1">
  <g id="patch_1">
   <path d="M 0 171.404 
L 250.904531 171.404 
L 250.904531 0 
L 0 0 
z
" style="fill: #ffffff"/>
  </g>
  <g id="axes_1">
   <g id="patch_2">
    <path d="M 35.624531 138.024 
L 243.704531 138.024 
L 243.704531 7.2 
L 35.624531 7.2 
z
" style="fill: #ffffff"/>
   </g>
   <g id="matplotlib.axis_1">
    <g id="xtick_1">
     <g id="line2d_1">
      <path d="M 35.624531 138.024 
L 35.624531 7.2 
" clip-path="url(#p5be92db10e)" style="fill: none; stroke: #b0b0b0; stroke-opacity: 0.25; stroke-width: 0.8; stroke-linecap: square"/>
     </g>
     <g id="line2d_2">
      <defs>
       <path id="m6b62fe72a5" d="M 0 0 
L 0 3.5 
" style="stroke: #000000; stroke-width: 0.8"/>
      </defs>
      <g>
       <use xlink:href="#m6b62fe72a5" x="35.624531" y="138.024" style="stroke: #000000; stroke-width: 0.8"/>
      </g>
     </g>
     <g id="text_1">
      <!-- $\mathdefault{10^{0}}$ -->
      <g transform="translate(29.279531 152.998844) scale(0.09 -0.09)">
       <defs>
        <path id="TimesNewRomanPSMT-31" d="M 750 3822 
L 1781 4325 
L 1884 4325 
L 1884 747 
Q 1884 391 1914 303 
Q 1944 216 2037 169 
Q 2131 122 2419 116 
L 2419 0 
L 825 0 
L 825 116 
Q 1125 122 1212 167 
Q 1300 213 1334 289 
Q 1369 366 1369 747 
L 1369 3034 
Q 1369 3497 1338 3628 
Q 1316 3728 1258 3775 
Q 1200 3822 1119 3822 
Q 1003 3822 797 3725 
L 750 3822 
z
" transform="scale(0.015625)"/>
        <path id="TimesNewRomanPSMT-30" d="M 231 2094 
Q 231 2819 450 3342 
Q 669 3866 1031 4122 
Q 1313 4325 1613 4325 
Q 2100 4325 2488 3828 
Q 2972 3213 2972 2159 
Q 2972 1422 2759 906 
Q 2547 391 2217 158 
Q 1888 -75 1581 -75 
Q 975 -75 572 641 
Q 231 1244 231 2094 
z
M 844 2016 
Q 844 1141 1059 588 
Q 1238 122 1591 122 
Q 1759 122 1940 273 
Q 2122 425 2216 781 
Q 2359 1319 2359 2297 
Q 2359 3022 2209 3506 
Q 2097 3866 1919 4016 
Q 1791 4119 1609 4119 
Q 1397 4119 1231 3928 
Q 1006 3669 925 3112 
Q 844 2556 844 2016 
z
" transform="scale(0.015625)"/>
       </defs>
       <use xlink:href="#TimesNewRomanPSMT-31" transform="translate(0 0.582813)"/>
       <use xlink:href="#TimesNewRomanPSMT-30" transform="translate(50 0.582813)"/>
       <use xlink:href="#TimesNewRomanPSMT-30" transform="translate(101.502813 60.695312) scale(0.7)"/>
      </g>
     </g>
    </g>
    <g id="xtick_2">
     <g id="line2d_3">
      <path d="M 115.591942 138.024 
L 115.591942 7.2 
" clip-path="url(#p5be92db10e)" style="fill: none; stroke: #b0b0b0; stroke-opacity: 0.25; stroke-width: 0.8; stroke-linecap: square"/>
     </g>
     <g id="line2d_4">
      <g>
       <use xlink:href="#m6b62fe72a5" x="115.591942" y="138.024" style="stroke: #000000; stroke-width: 0.8"/>
      </g>
     </g>
     <g id="text_2">
      <!-- $\mathdefault{10^{1}}$ -->
      <g transform="translate(109.246942 152.998844) scale(0.09 -0.09)">
       <use xlink:href="#TimesNewRomanPSMT-31" transform="translate(0 0.582813)"/>
       <use xlink:href="#TimesNewRomanPSMT-30" transform="translate(50 0.582813)"/>
       <use xlink:href="#TimesNewRomanPSMT-31" transform="translate(101.502813 60.695312) scale(0.7)"/>
      </g>
     </g>
    </g>
    <g id="xtick_3">
     <g id="line2d_5">
      <path d="M 195.559353 138.024 
L 195.559353 7.2 
" clip-path="url(#p5be92db10e)" style="fill: none; stroke: #b0b0b0; stroke-opacity: 0.25; stroke-width: 0.8; stroke-linecap: square"/>
     </g>
     <g id="line2d_6">
      <g>
       <use xlink:href="#m6b62fe72a5" x="195.559353" y="138.024" style="stroke: #000000; stroke-width: 0.8"/>
      </g>
     </g>
     <g id="text_3">
      <!-- $\mathdefault{10^{2}}$ -->
      <g transform="translate(189.214353 152.998844) scale(0.09 -0.09)">
       <defs>
        <path id="TimesNewRomanPSMT-32" d="M 2934 816 
L 2638 0 
L 138 0 
L 138 116 
Q 1241 1122 1691 1759 
Q 2141 2397 2141 2925 
Q 2141 3328 1894 3587 
Q 1647 3847 1303 3847 
Q 991 3847 742 3664 
Q 494 3481 375 3128 
L 259 3128 
Q 338 3706 661 4015 
Q 984 4325 1469 4325 
Q 1984 4325 2329 3994 
Q 2675 3663 2675 3213 
Q 2675 2891 2525 2569 
Q 2294 2063 1775 1497 
Q 997 647 803 472 
L 1909 472 
Q 2247 472 2383 497 
Q 2519 522 2628 598 
Q 2738 675 2819 816 
L 2934 816 
z
" transform="scale(0.015625)"/>
       </defs>
       <use xlink:href="#TimesNewRomanPSMT-31" transform="translate(0 0.582813)"/>
       <use xlink:href="#TimesNewRomanPSMT-30" transform="translate(50 0.582813)"/>
       <use xlink:href="#TimesNewRomanPSMT-32" transform="translate(101.502813 60.695312) scale(0.7)"/>
      </g>
     </g>
    </g>
    <g id="xtick_4">
     <g id="line2d_7">
      <defs>
       <path id="m51fa27f580" d="M 0 0 
L 0 2 
" style="stroke: #000000; stroke-width: 0.6"/>
      </defs>
      <g>
       <use xlink:href="#m51fa27f580" x="59.697121" y="138.024" style="stroke: #000000; stroke-width: 0.6"/>
      </g>
     </g>
    </g>
    <g id="xtick_5">
     <g id="line2d_8">
      <g>
       <use xlink:href="#m51fa27f580" x="73.778683" y="138.024" style="stroke: #000000; stroke-width: 0.6"/>
      </g>
     </g>
    </g>
    <g id="xtick_6">
     <g id="line2d_9">
      <g>
       <use xlink:href="#m51fa27f580" x="83.76971" y="138.024" style="stroke: #000000; stroke-width: 0.6"/>
      </g>
     </g>
    </g>
    <g id="xtick_7">
     <g id="line2d_10">
      <g>
       <use xlink:href="#m51fa27f580" x="91.519353" y="138.024" style="stroke: #000000; stroke-width: 0.6"/>
      </g>
     </g>
    </g>
    <g id="xtick_8">
     <g id="line2d_11">
      <g>
       <use xlink:href="#m51fa27f580" x="97.851272" y="138.024" style="stroke: #000000; stroke-width: 0.6"/>
      </g>
     </g>
    </g>
    <g id="xtick_9">
     <g id="line2d_12">
      <g>
       <use xlink:href="#m51fa27f580" x="103.204833" y="138.024" style="stroke: #000000; stroke-width: 0.6"/>
      </g>
     </g>
    </g>
    <g id="xtick_10">
     <g id="line2d_13">
      <g>
       <use xlink:href="#m51fa27f580" x="107.842299" y="138.024" style="stroke: #000000; stroke-width: 0.6"/>
      </g>
     </g>
    </g>
    <g id="xtick_11">
     <g id="line2d_14">
      <g>
       <use xlink:href="#m51fa27f580" x="111.932834" y="138.024" style="stroke: #000000; stroke-width: 0.6"/>
      </g>
     </g>
    </g>
    <g id="xtick_12">
     <g id="line2d_15">
      <g>
       <use xlink:href="#m51fa27f580" x="139.664531" y="138.024" style="stroke: #000000; stroke-width: 0.6"/>
      </g>
     </g>
    </g>
    <g id="xtick_13">
     <g id="line2d_16">
      <g>
       <use xlink:href="#m51fa27f580" x="153.746093" y="138.024" style="stroke: #000000; stroke-width: 0.6"/>
      </g>
     </g>
    </g>
    <g id="xtick_14">
     <g id="line2d_17">
      <g>
       <use xlink:href="#m51fa27f580" x="163.737121" y="138.024" style="stroke: #000000; stroke-width: 0.6"/>
      </g>
     </g>
    </g>
    <g id="xtick_15">
     <g id="line2d_18">
      <g>
       <use xlink:href="#m51fa27f580" x="171.486763" y="138.024" style="stroke: #000000; stroke-width: 0.6"/>
      </g>
     </g>
    </g>
    <g id="xtick_16">
     <g id="line2d_19">
      <g>
       <use xlink:href="#m51fa27f580" x="177.818683" y="138.024" style="stroke: #000000; stroke-width: 0.6"/>
      </g>
     </g>
    </g>
    <g id="xtick_17">
     <g id="line2d_20">
      <g>
       <use xlink:href="#m51fa27f580" x="183.172244" y="138.024" style="stroke: #000000; stroke-width: 0.6"/>
      </g>
     </g>
    </g>
    <g id="xtick_18">
     <g id="line2d_21">
      <g>
       <use xlink:href="#m51fa27f580" x="187.80971" y="138.024" style="stroke: #000000; stroke-width: 0.6"/>
      </g>
     </g>
    </g>
    <g id="xtick_19">
     <g id="line2d_22">
      <g>
       <use xlink:href="#m51fa27f580" x="191.900245" y="138.024" style="stroke: #000000; stroke-width: 0.6"/>
      </g>
     </g>
    </g>
    <g id="xtick_20">
     <g id="line2d_23">
      <g>
       <use xlink:href="#m51fa27f580" x="219.631942" y="138.024" style="stroke: #000000; stroke-width: 0.6"/>
      </g>
     </g>
    </g>
    <g id="xtick_21">
     <g id="line2d_24">
      <g>
       <use xlink:href="#m51fa27f580" x="233.713504" y="138.024" style="stroke: #000000; stroke-width: 0.6"/>
      </g>
     </g>
    </g>
    <g id="xtick_22">
     <g id="line2d_25">
      <g>
       <use xlink:href="#m51fa27f580" x="243.704531" y="138.024" style="stroke: #000000; stroke-width: 0.6"/>
      </g>
     </g>
    </g>
    <g id="text_4">
     <!-- marks stacked at one spot, $n$ -->
     <g transform="translate(88.454531 162.224) scale(0.09 -0.09)">
      <defs>
       <path id="TimesNewRomanPSMT-6d" d="M 1050 2338 
Q 1363 2650 1419 2697 
Q 1559 2816 1721 2881 
Q 1884 2947 2044 2947 
Q 2313 2947 2506 2790 
Q 2700 2634 2766 2338 
Q 3088 2713 3309 2830 
Q 3531 2947 3766 2947 
Q 3994 2947 4170 2830 
Q 4347 2713 4450 2447 
Q 4519 2266 4519 1878 
L 4519 647 
Q 4519 378 4559 278 
Q 4591 209 4675 161 
Q 4759 113 4950 113 
L 4950 0 
L 3538 0 
L 3538 113 
L 3597 113 
Q 3781 113 3884 184 
Q 3956 234 3988 344 
Q 4000 397 4000 647 
L 4000 1878 
Q 4000 2228 3916 2372 
Q 3794 2572 3525 2572 
Q 3359 2572 3192 2489 
Q 3025 2406 2788 2181 
L 2781 2147 
L 2788 2013 
L 2788 647 
Q 2788 353 2820 281 
Q 2853 209 2943 161 
Q 3034 113 3253 113 
L 3253 0 
L 1806 0 
L 1806 113 
Q 2044 113 2133 169 
Q 2222 225 2256 338 
Q 2272 391 2272 647 
L 2272 1878 
Q 2272 2228 2169 2381 
Q 2031 2581 1784 2581 
Q 1616 2581 1450 2491 
Q 1191 2353 1050 2181 
L 1050 647 
Q 1050 366 1089 281 
Q 1128 197 1204 155 
Q 1281 113 1516 113 
L 1516 0 
L 100 0 
L 100 113 
Q 297 113 375 155 
Q 453 197 493 289 
Q 534 381 534 647 
L 534 1741 
Q 534 2213 506 2350 
Q 484 2453 437 2492 
Q 391 2531 309 2531 
Q 222 2531 100 2484 
L 53 2597 
L 916 2947 
L 1050 2947 
L 1050 2338 
z
" transform="scale(0.015625)"/>
       <path id="TimesNewRomanPSMT-61" d="M 1822 413 
Q 1381 72 1269 19 
Q 1100 -59 909 -59 
Q 613 -59 420 144 
Q 228 347 228 678 
Q 228 888 322 1041 
Q 450 1253 767 1440 
Q 1084 1628 1822 1897 
L 1822 2009 
Q 1822 2438 1686 2597 
Q 1550 2756 1291 2756 
Q 1094 2756 978 2650 
Q 859 2544 859 2406 
L 866 2225 
Q 866 2081 792 2003 
Q 719 1925 600 1925 
Q 484 1925 411 2006 
Q 338 2088 338 2228 
Q 338 2497 613 2722 
Q 888 2947 1384 2947 
Q 1766 2947 2009 2819 
Q 2194 2722 2281 2516 
Q 2338 2381 2338 1966 
L 2338 994 
Q 2338 584 2353 492 
Q 2369 400 2405 369 
Q 2441 338 2488 338 
Q 2538 338 2575 359 
Q 2641 400 2828 588 
L 2828 413 
Q 2478 -56 2159 -56 
Q 2006 -56 1915 50 
Q 1825 156 1822 413 
z
M 1822 616 
L 1822 1706 
Q 1350 1519 1213 1441 
Q 966 1303 859 1153 
Q 753 1003 753 825 
Q 753 600 887 451 
Q 1022 303 1197 303 
Q 1434 303 1822 616 
z
" transform="scale(0.015625)"/>
       <path id="TimesNewRomanPSMT-72" d="M 1038 2947 
L 1038 2303 
Q 1397 2947 1775 2947 
Q 1947 2947 2059 2842 
Q 2172 2738 2172 2600 
Q 2172 2478 2090 2393 
Q 2009 2309 1897 2309 
Q 1788 2309 1652 2417 
Q 1516 2525 1450 2525 
Q 1394 2525 1328 2463 
Q 1188 2334 1038 2041 
L 1038 669 
Q 1038 431 1097 309 
Q 1138 225 1241 169 
Q 1344 113 1538 113 
L 1538 0 
L 72 0 
L 72 113 
Q 291 113 397 181 
Q 475 231 506 341 
Q 522 394 522 644 
L 522 1753 
Q 522 2253 501 2348 
Q 481 2444 426 2487 
Q 372 2531 291 2531 
Q 194 2531 72 2484 
L 41 2597 
L 906 2947 
L 1038 2947 
z
" transform="scale(0.015625)"/>
       <path id="TimesNewRomanPSMT-6b" d="M 1047 4444 
L 1047 1597 
L 1775 2259 
Q 2006 2472 2044 2528 
Q 2069 2566 2069 2603 
Q 2069 2666 2017 2711 
Q 1966 2756 1847 2763 
L 1847 2863 
L 3091 2863 
L 3091 2763 
Q 2834 2756 2664 2684 
Q 2494 2613 2291 2428 
L 1556 1750 
L 2291 822 
Q 2597 438 2703 334 
Q 2853 188 2966 144 
Q 3044 113 3238 113 
L 3238 0 
L 1847 0 
L 1847 113 
Q 1966 116 2008 148 
Q 2050 181 2050 241 
Q 2050 313 1925 472 
L 1047 1594 
L 1047 644 
Q 1047 366 1086 278 
Q 1125 191 1197 153 
Q 1269 116 1509 113 
L 1509 0 
L 53 0 
L 53 113 
Q 272 113 381 166 
Q 447 200 481 272 
Q 528 375 528 628 
L 528 3234 
Q 528 3731 506 3842 
Q 484 3953 434 3995 
Q 384 4038 303 4038 
Q 238 4038 106 3984 
L 53 4094 
L 903 4444 
L 1047 4444 
z
" transform="scale(0.015625)"/>
       <path id="TimesNewRomanPSMT-73" d="M 2050 2947 
L 2050 1972 
L 1947 1972 
Q 1828 2431 1642 2597 
Q 1456 2763 1169 2763 
Q 950 2763 815 2647 
Q 681 2531 681 2391 
Q 681 2216 781 2091 
Q 878 1963 1175 1819 
L 1631 1597 
Q 2266 1288 2266 781 
Q 2266 391 1970 151 
Q 1675 -88 1309 -88 
Q 1047 -88 709 6 
Q 606 38 541 38 
Q 469 38 428 -44 
L 325 -44 
L 325 978 
L 428 978 
Q 516 541 762 319 
Q 1009 97 1316 97 
Q 1531 97 1667 223 
Q 1803 350 1803 528 
Q 1803 744 1651 891 
Q 1500 1038 1047 1263 
Q 594 1488 453 1669 
Q 313 1847 313 2119 
Q 313 2472 555 2709 
Q 797 2947 1181 2947 
Q 1350 2947 1591 2875 
Q 1750 2828 1803 2828 
Q 1853 2828 1881 2850 
Q 1909 2872 1947 2947 
L 2050 2947 
z
" transform="scale(0.015625)"/>
       <path id="TimesNewRomanPSMT-20" transform="scale(0.015625)"/>
       <path id="TimesNewRomanPSMT-74" d="M 1031 3803 
L 1031 2863 
L 1700 2863 
L 1700 2644 
L 1031 2644 
L 1031 788 
Q 1031 509 1111 412 
Q 1191 316 1316 316 
Q 1419 316 1516 380 
Q 1613 444 1666 569 
L 1788 569 
Q 1678 263 1478 108 
Q 1278 -47 1066 -47 
Q 922 -47 784 33 
Q 647 113 581 261 
Q 516 409 516 719 
L 516 2644 
L 63 2644 
L 63 2747 
Q 234 2816 414 2980 
Q 594 3144 734 3369 
Q 806 3488 934 3803 
L 1031 3803 
z
" transform="scale(0.015625)"/>
       <path id="TimesNewRomanPSMT-63" d="M 2631 1088 
Q 2516 522 2178 217 
Q 1841 -88 1431 -88 
Q 944 -88 581 321 
Q 219 731 219 1428 
Q 219 2103 620 2525 
Q 1022 2947 1584 2947 
Q 2006 2947 2278 2723 
Q 2550 2500 2550 2259 
Q 2550 2141 2473 2067 
Q 2397 1994 2259 1994 
Q 2075 1994 1981 2113 
Q 1928 2178 1911 2362 
Q 1894 2547 1784 2644 
Q 1675 2738 1481 2738 
Q 1169 2738 978 2506 
Q 725 2200 725 1697 
Q 725 1184 976 792 
Q 1228 400 1656 400 
Q 1963 400 2206 609 
Q 2378 753 2541 1131 
L 2631 1088 
z
" transform="scale(0.015625)"/>
       <path id="TimesNewRomanPSMT-65" d="M 681 1784 
Q 678 1147 991 784 
Q 1303 422 1725 422 
Q 2006 422 2214 576 
Q 2422 731 2563 1106 
L 2659 1044 
Q 2594 616 2278 264 
Q 1963 -88 1488 -88 
Q 972 -88 605 314 
Q 238 716 238 1394 
Q 238 2128 614 2539 
Q 991 2950 1559 2950 
Q 2041 2950 2350 2633 
Q 2659 2316 2659 1784 
L 681 1784 
z
M 681 1966 
L 2006 1966 
Q 1991 2241 1941 2353 
Q 1863 2528 1708 2628 
Q 1553 2728 1384 2728 
Q 1125 2728 920 2526 
Q 716 2325 681 1966 
z
" transform="scale(0.015625)"/>
       <path id="TimesNewRomanPSMT-64" d="M 2222 322 
Q 2013 103 1813 7 
Q 1613 -88 1381 -88 
Q 913 -88 563 304 
Q 213 697 213 1313 
Q 213 1928 600 2439 
Q 988 2950 1597 2950 
Q 1975 2950 2222 2709 
L 2222 3238 
Q 2222 3728 2198 3840 
Q 2175 3953 2125 3993 
Q 2075 4034 2000 4034 
Q 1919 4034 1784 3984 
L 1744 4094 
L 2597 4444 
L 2738 4444 
L 2738 1134 
Q 2738 631 2761 520 
Q 2784 409 2836 365 
Q 2888 322 2956 322 
Q 3041 322 3181 375 
L 3216 266 
L 2366 -88 
L 2222 -88 
L 2222 322 
z
M 2222 541 
L 2222 2016 
Q 2203 2228 2109 2403 
Q 2016 2578 1861 2667 
Q 1706 2756 1559 2756 
Q 1284 2756 1069 2509 
Q 784 2184 784 1559 
Q 784 928 1059 592 
Q 1334 256 1672 256 
Q 1956 256 2222 541 
z
" transform="scale(0.015625)"/>
       <path id="TimesNewRomanPSMT-6f" d="M 1600 2947 
Q 2250 2947 2644 2453 
Q 2978 2031 2978 1484 
Q 2978 1100 2793 706 
Q 2609 313 2286 112 
Q 1963 -88 1566 -88 
Q 919 -88 538 428 
Q 216 863 216 1403 
Q 216 1797 411 2186 
Q 606 2575 925 2761 
Q 1244 2947 1600 2947 
z
M 1503 2744 
Q 1338 2744 1170 2645 
Q 1003 2547 900 2300 
Q 797 2053 797 1666 
Q 797 1041 1045 587 
Q 1294 134 1700 134 
Q 2003 134 2200 384 
Q 2397 634 2397 1244 
Q 2397 2006 2069 2444 
Q 1847 2744 1503 2744 
z
" transform="scale(0.015625)"/>
       <path id="TimesNewRomanPSMT-6e" d="M 1034 2341 
Q 1538 2947 1994 2947 
Q 2228 2947 2397 2830 
Q 2566 2713 2666 2444 
Q 2734 2256 2734 1869 
L 2734 647 
Q 2734 375 2778 278 
Q 2813 200 2889 156 
Q 2966 113 3172 113 
L 3172 0 
L 1756 0 
L 1756 113 
L 1816 113 
Q 2016 113 2095 173 
Q 2175 234 2206 353 
Q 2219 400 2219 647 
L 2219 1819 
Q 2219 2209 2117 2386 
Q 2016 2563 1775 2563 
Q 1403 2563 1034 2156 
L 1034 647 
Q 1034 356 1069 288 
Q 1113 197 1189 155 
Q 1266 113 1500 113 
L 1500 0 
L 84 0 
L 84 113 
L 147 113 
Q 366 113 442 223 
Q 519 334 519 647 
L 519 1709 
Q 519 2225 495 2337 
Q 472 2450 423 2490 
Q 375 2531 294 2531 
Q 206 2531 84 2484 
L 38 2597 
L 900 2947 
L 1034 2947 
L 1034 2341 
z
" transform="scale(0.015625)"/>
       <path id="TimesNewRomanPSMT-70" d="M -6 2578 
L 875 2934 
L 994 2934 
L 994 2266 
Q 1216 2644 1439 2795 
Q 1663 2947 1909 2947 
Q 2341 2947 2628 2609 
Q 2981 2197 2981 1534 
Q 2981 794 2556 309 
Q 2206 -88 1675 -88 
Q 1444 -88 1275 -22 
Q 1150 25 994 166 
L 994 -706 
Q 994 -1000 1030 -1079 
Q 1066 -1159 1155 -1206 
Q 1244 -1253 1478 -1253 
L 1478 -1369 
L -22 -1369 
L -22 -1253 
L 56 -1253 
Q 228 -1256 350 -1188 
Q 409 -1153 442 -1076 
Q 475 -1000 475 -688 
L 475 2019 
Q 475 2297 450 2372 
Q 425 2447 370 2484 
Q 316 2522 222 2522 
Q 147 2522 31 2478 
L -6 2578 
z
M 994 2081 
L 994 1013 
Q 994 666 1022 556 
Q 1066 375 1236 237 
Q 1406 100 1666 100 
Q 1978 100 2172 344 
Q 2425 663 2425 1241 
Q 2425 1897 2138 2250 
Q 1938 2494 1663 2494 
Q 1513 2494 1366 2419 
Q 1253 2363 994 2081 
z
" transform="scale(0.015625)"/>
       <path id="TimesNewRomanPSMT-2c" d="M 344 -1066 
L 344 -928 
Q 666 -822 842 -598 
Q 1019 -375 1019 -125 
Q 1019 -66 991 -25 
Q 969 3 947 3 
Q 913 3 797 -59 
Q 741 -88 678 -88 
Q 525 -88 434 3 
Q 344 94 344 253 
Q 344 406 461 515 
Q 578 625 747 625 
Q 953 625 1114 445 
Q 1275 266 1275 -31 
Q 1275 -353 1051 -629 
Q 828 -906 344 -1066 
z
" transform="scale(0.015625)"/>
       <path id="Cmmi10-6e" d="M 494 109 
Q 494 147 500 166 
L 978 2075 
Q 1025 2253 1025 2388 
Q 1025 2663 838 2663 
Q 638 2663 541 2423 
Q 444 2184 353 1819 
Q 353 1800 334 1789 
Q 316 1778 300 1778 
L 225 1778 
Q 203 1778 187 1801 
Q 172 1825 172 1844 
Q 241 2122 305 2315 
Q 369 2509 505 2668 
Q 641 2828 844 2828 
Q 1084 2828 1268 2676 
Q 1453 2525 1453 2291 
Q 1644 2541 1900 2684 
Q 2156 2828 2444 2828 
Q 2672 2828 2837 2750 
Q 3003 2672 3095 2514 
Q 3188 2356 3188 2138 
Q 3188 1875 3070 1503 
Q 2953 1131 2778 672 
Q 2688 463 2688 288 
Q 2688 97 2834 97 
Q 3084 97 3251 365 
Q 3419 634 3488 941 
Q 3500 978 3541 978 
L 3616 978 
Q 3641 978 3658 962 
Q 3675 947 3675 922 
Q 3675 916 3669 903 
Q 3581 541 3364 234 
Q 3147 -72 2822 -72 
Q 2597 -72 2437 83 
Q 2278 238 2278 459 
Q 2278 578 2328 709 
Q 2409 919 2514 1209 
Q 2619 1500 2686 1765 
Q 2753 2031 2753 2234 
Q 2753 2413 2679 2538 
Q 2606 2663 2431 2663 
Q 2197 2663 2000 2559 
Q 1803 2456 1656 2286 
Q 1509 2116 1388 1881 
L 953 141 
Q 931 53 854 -9 
Q 778 -72 684 -72 
Q 606 -72 550 -22 
Q 494 28 494 109 
z
" transform="scale(0.015625)"/>
      </defs>
      <use xlink:href="#TimesNewRomanPSMT-6d" transform="translate(0 0.5625)"/>
      <use xlink:href="#TimesNewRomanPSMT-61" transform="translate(77.783203 0.5625)"/>
      <use xlink:href="#TimesNewRomanPSMT-72" transform="translate(122.167969 0.5625)"/>
      <use xlink:href="#TimesNewRomanPSMT-6b" transform="translate(155.46875 0.5625)"/>
      <use xlink:href="#TimesNewRomanPSMT-73" transform="translate(205.46875 0.5625)"/>
      <use xlink:href="#TimesNewRomanPSMT-20" transform="translate(244.384766 0.5625)"/>
      <use xlink:href="#TimesNewRomanPSMT-73" transform="translate(269.384766 0.5625)"/>
      <use xlink:href="#TimesNewRomanPSMT-74" transform="translate(308.300781 0.5625)"/>
      <use xlink:href="#TimesNewRomanPSMT-61" transform="translate(336.083984 0.5625)"/>
      <use xlink:href="#TimesNewRomanPSMT-63" transform="translate(380.46875 0.5625)"/>
      <use xlink:href="#TimesNewRomanPSMT-6b" transform="translate(424.853516 0.5625)"/>
      <use xlink:href="#TimesNewRomanPSMT-65" transform="translate(474.853516 0.5625)"/>
      <use xlink:href="#TimesNewRomanPSMT-64" transform="translate(519.238281 0.5625)"/>
      <use xlink:href="#TimesNewRomanPSMT-20" transform="translate(569.238281 0.5625)"/>
      <use xlink:href="#TimesNewRomanPSMT-61" transform="translate(594.238281 0.5625)"/>
      <use xlink:href="#TimesNewRomanPSMT-74" transform="translate(638.623047 0.5625)"/>
      <use xlink:href="#TimesNewRomanPSMT-20" transform="translate(666.40625 0.5625)"/>
      <use xlink:href="#TimesNewRomanPSMT-6f" transform="translate(691.40625 0.5625)"/>
      <use xlink:href="#TimesNewRomanPSMT-6e" transform="translate(741.40625 0.5625)"/>
      <use xlink:href="#TimesNewRomanPSMT-65" transform="translate(791.40625 0.5625)"/>
      <use xlink:href="#TimesNewRomanPSMT-20" transform="translate(835.791016 0.5625)"/>
      <use xlink:href="#TimesNewRomanPSMT-73" transform="translate(860.791016 0.5625)"/>
      <use xlink:href="#TimesNewRomanPSMT-70" transform="translate(899.707031 0.5625)"/>
      <use xlink:href="#TimesNewRomanPSMT-6f" transform="translate(949.707031 0.5625)"/>
      <use xlink:href="#TimesNewRomanPSMT-74" transform="translate(999.707031 0.5625)"/>
      <use xlink:href="#TimesNewRomanPSMT-2c" transform="translate(1027.490234 0.5625)"/>
      <use xlink:href="#TimesNewRomanPSMT-20" transform="translate(1052.490234 0.5625)"/>
      <use xlink:href="#Cmmi10-6e" transform="translate(1077.490234 0.5625)"/>
     </g>
    </g>
   </g>
   <g id="matplotlib.axis_2">
    <g id="ytick_1">
     <g id="line2d_26">
      <path d="M 35.624531 138.024 
L 243.704531 138.024 
" clip-path="url(#p5be92db10e)" style="fill: none; stroke: #b0b0b0; stroke-opacity: 0.25; stroke-width: 0.8; stroke-linecap: square"/>
     </g>
     <g id="line2d_27">
      <defs>
       <path id="m301a166c22" d="M 0 0 
L -3.5 0 
" style="stroke: #000000; stroke-width: 0.8"/>
      </defs>
      <g>
       <use xlink:href="#m301a166c22" x="35.624531" y="138.024" style="stroke: #000000; stroke-width: 0.8"/>
      </g>
     </g>
     <g id="text_5">
      <!-- 0.0 -->
      <g transform="translate(17.374531 141.148687) scale(0.09 -0.09)">
       <defs>
        <path id="TimesNewRomanPSMT-2e" d="M 800 606 
Q 947 606 1047 504 
Q 1147 403 1147 259 
Q 1147 116 1045 14 
Q 944 -88 800 -88 
Q 656 -88 554 14 
Q 453 116 453 259 
Q 453 406 554 506 
Q 656 606 800 606 
z
" transform="scale(0.015625)"/>
       </defs>
       <use xlink:href="#TimesNewRomanPSMT-30"/>
       <use xlink:href="#TimesNewRomanPSMT-2e" transform="translate(50 0)"/>
       <use xlink:href="#TimesNewRomanPSMT-30" transform="translate(75 0)"/>
      </g>
     </g>
    </g>
    <g id="ytick_2">
     <g id="line2d_28">
      <path d="M 35.624531 81.634345 
L 243.704531 81.634345 
" clip-path="url(#p5be92db10e)" style="fill: none; stroke: #b0b0b0; stroke-opacity: 0.25; stroke-width: 0.8; stroke-linecap: square"/>
     </g>
     <g id="line2d_29">
      <g>
       <use xlink:href="#m301a166c22" x="35.624531" y="81.634345" style="stroke: #000000; stroke-width: 0.8"/>
      </g>
     </g>
     <g id="text_6">
      <!-- 0.5 -->
      <g transform="translate(17.374531 84.759032) scale(0.09 -0.09)">
       <defs>
        <path id="TimesNewRomanPSMT-35" d="M 2778 4238 
L 2534 3706 
L 1259 3706 
L 981 3138 
Q 1809 3016 2294 2522 
Q 2709 2097 2709 1522 
Q 2709 1188 2573 903 
Q 2438 619 2231 419 
Q 2025 219 1772 97 
Q 1413 -75 1034 -75 
Q 653 -75 479 54 
Q 306 184 306 341 
Q 306 428 378 495 
Q 450 563 559 563 
Q 641 563 702 538 
Q 763 513 909 409 
Q 1144 247 1384 247 
Q 1750 247 2026 523 
Q 2303 800 2303 1197 
Q 2303 1581 2056 1914 
Q 1809 2247 1375 2428 
Q 1034 2569 447 2591 
L 1259 4238 
L 2778 4238 
z
" transform="scale(0.015625)"/>
       </defs>
       <use xlink:href="#TimesNewRomanPSMT-30"/>
       <use xlink:href="#TimesNewRomanPSMT-2e" transform="translate(50 0)"/>
       <use xlink:href="#TimesNewRomanPSMT-35" transform="translate(75 0)"/>
      </g>
     </g>
    </g>
    <g id="ytick_3">
     <g id="line2d_30">
      <path d="M 35.624531 25.24469 
L 243.704531 25.24469 
" clip-path="url(#p5be92db10e)" style="fill: none; stroke: #b0b0b0; stroke-opacity: 0.25; stroke-width: 0.8; stroke-linecap: square"/>
     </g>
     <g id="line2d_31">
      <g>
       <use xlink:href="#m301a166c22" x="35.624531" y="25.24469" style="stroke: #000000; stroke-width: 0.8"/>
      </g>
     </g>
     <g id="text_7">
      <!-- 1.0 -->
      <g transform="translate(17.374531 28.369377) scale(0.09 -0.09)">
       <use xlink:href="#TimesNewRomanPSMT-31"/>
       <use xlink:href="#TimesNewRomanPSMT-2e" transform="translate(50 0)"/>
       <use xlink:href="#TimesNewRomanPSMT-30" transform="translate(75 0)"/>
      </g>
     </g>
    </g>
    <g id="text_8">
     <!-- ink, $a_n$ -->
     <g transform="translate(13.449375 85.167) rotate(-90) scale(0.09 -0.09)">
      <defs>
       <path id="TimesNewRomanPSMT-69" d="M 928 4444 
Q 1059 4444 1151 4351 
Q 1244 4259 1244 4128 
Q 1244 3997 1151 3903 
Q 1059 3809 928 3809 
Q 797 3809 703 3903 
Q 609 3997 609 4128 
Q 609 4259 701 4351 
Q 794 4444 928 4444 
z
M 1188 2947 
L 1188 647 
Q 1188 378 1227 289 
Q 1266 200 1342 156 
Q 1419 113 1622 113 
L 1622 0 
L 231 0 
L 231 113 
Q 441 113 512 153 
Q 584 194 626 287 
Q 669 381 669 647 
L 669 1750 
Q 669 2216 641 2353 
Q 619 2453 572 2492 
Q 525 2531 444 2531 
Q 356 2531 231 2484 
L 188 2597 
L 1050 2947 
L 1188 2947 
z
" transform="scale(0.015625)"/>
       <path id="Cmmi10-61" d="M 1113 -72 
Q 709 -72 476 233 
Q 244 538 244 953 
Q 244 1363 456 1803 
Q 669 2244 1030 2536 
Q 1391 2828 1806 2828 
Q 1997 2828 2147 2725 
Q 2297 2622 2381 2444 
Q 2453 2700 2663 2700 
Q 2744 2700 2798 2651 
Q 2853 2603 2853 2522 
Q 2853 2503 2851 2493 
Q 2850 2484 2847 2472 
L 2400 684 
Q 2356 494 2356 372 
Q 2356 97 2541 97 
Q 2741 97 2845 351 
Q 2950 606 3022 941 
Q 3034 978 3072 978 
L 3150 978 
Q 3175 978 3190 956 
Q 3206 934 3206 916 
Q 3094 469 2961 198 
Q 2828 -72 2528 -72 
Q 2313 -72 2147 54 
Q 1981 181 1941 391 
Q 1528 -72 1113 -72 
z
M 1119 97 
Q 1350 97 1567 270 
Q 1784 444 1941 678 
Q 1947 684 1947 697 
L 2291 2088 
L 2297 2106 
Q 2259 2334 2132 2498 
Q 2006 2663 1791 2663 
Q 1575 2663 1389 2486 
Q 1203 2309 1075 2069 
Q 950 1813 836 1366 
Q 722 919 722 672 
Q 722 450 817 273 
Q 913 97 1119 97 
z
" transform="scale(0.015625)"/>
      </defs>
      <use xlink:href="#TimesNewRomanPSMT-69" transform="translate(0 0.5625)"/>
      <use xlink:href="#TimesNewRomanPSMT-6e" transform="translate(27.783203 0.5625)"/>
      <use xlink:href="#TimesNewRomanPSMT-6b" transform="translate(77.783203 0.5625)"/>
      <use xlink:href="#TimesNewRomanPSMT-2c" transform="translate(127.783203 0.5625)"/>
      <use xlink:href="#TimesNewRomanPSMT-20" transform="translate(152.783203 0.5625)"/>
      <use xlink:href="#Cmmi10-61" transform="translate(177.783203 0.5625)"/>
      <use xlink:href="#Cmmi10-6e" transform="translate(230.566406 -16.44375) scale(0.7)"/>
     </g>
    </g>
   </g>
   <g id="line2d_32">
    <path d="M 35.624531 81.634345 
L 41.882576 74.421575 
L 62.221223 50.641718 
L 66.393253 46.240899 
L 70.043779 42.671599 
L 73.694306 39.413418 
L 76.823328 36.896505 
L 79.952351 34.651629 
L 83.081373 32.687555 
L 86.210396 31.00496 
L 89.339418 29.596324 
L 92.468441 28.44638 
L 95.597464 27.533139 
L 99.24799 26.730384 
L 102.898516 26.16413 
L 107.070546 25.742329 
L 112.285584 25.451371 
L 119.586637 25.292002 
L 135.231749 25.245256 
L 243.704531 25.24469 
L 243.704531 25.24469 
" clip-path="url(#p5be92db10e)" style="fill: none; stroke: #8c8c8c; stroke-linecap: square"/>
   </g>
   <g id="line2d_33">
    <path d="M 35.624531 115.468138 
L 39.796561 112.934582 
L 43.968591 110.162878 
L 48.140621 107.14234 
L 52.312652 103.86494 
L 56.484682 100.32627 
L 61.178215 96.033536 
L 65.871749 91.420063 
L 70.565283 86.506908 
L 75.780321 80.7393 
L 82.55987 72.872518 
L 99.769494 52.644646 
L 104.463027 47.571794 
L 108.635058 43.401882 
L 112.285584 40.074488 
L 115.414606 37.492688 
L 118.543629 35.17958 
L 121.672652 33.145847 
L 124.801674 31.394193 
L 127.930697 29.919101 
L 131.059719 28.707141 
L 134.188742 27.737858 
L 137.317764 26.985182 
L 140.968291 26.340878 
L 145.140321 25.851459 
L 149.833855 25.529569 
L 156.0919 25.332142 
L 167.043479 25.250836 
L 239.010997 25.24469 
L 243.704531 25.24469 
L 243.704531 25.24469 
" clip-path="url(#p5be92db10e)" style="fill: none; stroke: #8c8c8c; stroke-linecap: square"/>
   </g>
   <g id="line2d_34">
    <path d="M 35.624531 132.385034 
L 42.40408 131.206894 
L 48.662125 129.91038 
L 54.92017 128.378723 
L 60.656712 126.735908 
L 65.871749 125.01646 
L 71.086787 123.054981 
L 75.780321 121.060102 
L 80.473855 118.82645 
L 85.167388 116.333427 
L 89.860922 113.561073 
L 94.032952 110.847319 
L 98.204982 107.887073 
L 102.377012 104.671593 
L 106.549043 101.195512 
L 111.242576 96.972454 
L 115.93611 92.425761 
L 120.629644 87.573828 
L 125.844682 81.863941 
L 132.102727 74.661435 
L 152.962877 50.296563 
L 157.134907 45.91941 
L 160.785434 42.37544 
L 164.43596 39.146195 
L 167.564982 36.656247 
L 170.694005 34.43958 
L 173.823027 32.504158 
L 176.95205 30.849823 
L 180.081073 29.468239 
L 183.210095 28.343403 
L 186.339118 27.452718 
L 189.989644 26.672501 
L 193.64017 26.124425 
L 197.8122 25.718164 
L 203.027238 25.439755 
L 210.328291 25.288743 
L 226.494907 25.24511 
L 243.704531 25.24469 
L 243.704531 25.24469 
" clip-path="url(#p5be92db10e)" style="fill: none; stroke: #8c8c8c; stroke-linecap: square"/>
   </g>
   <g id="line2d_35">
    <path d="M 35.624531 136.896207 
L 50.226637 136.311258 
L 62.221223 135.612325 
L 72.651298 134.779778 
L 81.516862 133.85394 
L 89.339418 132.825095 
L 96.640471 131.643779 
L 103.42002 130.316423 
L 109.678065 128.858007 
L 115.414606 127.2925 
L 120.629644 125.652556 
L 125.844682 123.779982 
L 130.538215 121.873522 
L 135.231749 119.736426 
L 139.925283 117.348041 
L 144.618817 114.688062 
L 148.790847 112.080109 
L 152.962877 109.230375 
L 157.134907 106.128925 
L 161.306937 102.768771 
L 165.478967 99.146873 
L 170.172501 94.762118 
L 174.866035 90.061295 
L 180.081073 84.498035 
L 185.817614 78.02972 
L 193.64017 68.817433 
L 205.113253 55.273255 
L 210.328291 49.478465 
L 214.500321 45.159676 
L 218.150847 41.677604 
L 221.801373 38.518577 
L 224.930396 36.093687 
L 228.059418 33.94473 
L 231.188441 32.077737 
L 234.317464 30.490552 
L 237.446486 29.172913 
L 240.575509 28.1071 
L 243.704531 27.269141 
L 243.704531 27.269141 
" clip-path="url(#p5be92db10e)" style="fill: none; stroke: #8c8c8c; stroke-linecap: square"/>
   </g>
   <g id="line2d_36">
    <path d="M 35.624531 30.883655 
L 243.704531 30.883655 
" clip-path="url(#p5be92db10e)" style="fill: none; stroke-dasharray: 2.96,1.28; stroke-dashoffset: 0; stroke: #b03a2e; stroke-width: 0.8"/>
   </g>
   <g id="patch_3">
    <path d="M 35.624531 138.024 
L 35.624531 25.24469 
" style="fill: none; stroke: #000000; stroke-width: 0.8; stroke-linejoin: miter; stroke-linecap: square"/>
   </g>
   <g id="patch_4">
    <path d="M 35.624531 138.024 
L 243.704531 138.024 
" style="fill: none; stroke: #000000; stroke-width: 0.8; stroke-linejoin: miter; stroke-linecap: square"/>
   </g>
   <g id="text_9">
    <!-- $\alpha = 0.5$ -->
    <g style="fill: #595959" transform="translate(82.318758 40.68473) scale(0.09 -0.09)">
     <defs>
      <path id="Cmmi10-ae" d="M 1288 -72 
Q 984 -72 748 72 
Q 513 216 384 459 
Q 256 703 256 1013 
Q 256 1447 498 1872 
Q 741 2297 1142 2562 
Q 1544 2828 1984 2828 
Q 2309 2828 2556 2658 
Q 2803 2488 2931 2205 
Q 3059 1922 3059 1600 
L 3066 1172 
Q 3284 1475 3436 1801 
Q 3588 2128 3669 2478 
Q 3681 2516 3719 2516 
L 3794 2516 
Q 3853 2516 3853 2456 
Q 3853 2450 3847 2438 
Q 3772 2144 3659 1873 
Q 3547 1603 3395 1350 
Q 3244 1097 3066 891 
Q 3066 97 3250 97 
Q 3369 97 3445 167 
Q 3522 238 3580 341 
Q 3638 444 3653 447 
L 3731 447 
Q 3781 447 3781 384 
Q 3781 225 3598 76 
Q 3416 -72 3238 -72 
Q 3006 -72 2853 78 
Q 2700 228 2644 469 
Q 2344 213 1994 70 
Q 1644 -72 1288 -72 
z
M 1300 97 
Q 1984 97 2613 659 
Q 2609 697 2603 751 
Q 2597 806 2597 813 
L 2597 1503 
Q 2597 2663 1972 2663 
Q 1597 2663 1315 2342 
Q 1034 2022 892 1576 
Q 750 1131 750 763 
Q 750 484 892 290 
Q 1034 97 1300 97 
z
" transform="scale(0.015625)"/>
      <path id="Cmr10-3d" d="M 481 850 
Q 428 850 393 890 
Q 359 931 359 978 
Q 359 1031 393 1068 
Q 428 1106 481 1106 
L 4500 1106 
Q 4547 1106 4581 1068 
Q 4616 1031 4616 978 
Q 4616 931 4581 890 
Q 4547 850 4500 850 
L 481 850 
z
M 481 2094 
Q 428 2094 393 2131 
Q 359 2169 359 2222 
Q 359 2269 393 2309 
Q 428 2350 481 2350 
L 4500 2350 
Q 4547 2350 4581 2309 
Q 4616 2269 4616 2222 
Q 4616 2169 4581 2131 
Q 4547 2094 4500 2094 
L 481 2094 
z
" transform="scale(0.015625)"/>
      <path id="Cmr10-30" d="M 1600 -141 
Q 816 -141 533 504 
Q 250 1150 250 2041 
Q 250 2597 351 3087 
Q 453 3578 754 3920 
Q 1056 4263 1600 4263 
Q 2022 4263 2290 4056 
Q 2559 3850 2700 3523 
Q 2841 3197 2892 2823 
Q 2944 2450 2944 2041 
Q 2944 1491 2842 1011 
Q 2741 531 2444 195 
Q 2147 -141 1600 -141 
z
M 1600 25 
Q 1956 25 2131 390 
Q 2306 756 2347 1200 
Q 2388 1644 2388 2144 
Q 2388 2625 2347 3031 
Q 2306 3438 2132 3767 
Q 1959 4097 1600 4097 
Q 1238 4097 1063 3765 
Q 888 3434 847 3029 
Q 806 2625 806 2144 
Q 806 1788 823 1472 
Q 841 1156 916 820 
Q 991 484 1158 254 
Q 1325 25 1600 25 
z
" transform="scale(0.015625)"/>
      <path id="Cmmi10-3a" d="M 538 353 
Q 538 497 644 600 
Q 750 703 891 703 
Q 978 703 1062 656 
Q 1147 609 1194 525 
Q 1241 441 1241 353 
Q 1241 213 1137 106 
Q 1034 0 891 0 
Q 750 0 644 106 
Q 538 213 538 353 
z
" transform="scale(0.015625)"/>
      <path id="Cmr10-35" d="M 556 728 
Q 622 541 758 387 
Q 894 234 1080 148 
Q 1266 63 1466 63 
Q 1928 63 2103 422 
Q 2278 781 2278 1294 
Q 2278 1516 2270 1667 
Q 2263 1819 2228 1959 
Q 2169 2184 2020 2353 
Q 1872 2522 1656 2522 
Q 1441 2522 1286 2456 
Q 1131 2391 1034 2303 
Q 938 2216 863 2119 
Q 788 2022 769 2016 
L 697 2016 
Q 681 2016 657 2036 
Q 634 2056 634 2075 
L 634 4213 
Q 634 4228 654 4245 
Q 675 4263 697 4263 
L 716 4263 
Q 1147 4056 1631 4056 
Q 2106 4056 2547 4263 
L 2566 4263 
Q 2588 4263 2606 4247 
Q 2625 4231 2625 4213 
L 2625 4153 
Q 2625 4122 2613 4122 
Q 2394 3831 2064 3668 
Q 1734 3506 1381 3506 
Q 1125 3506 856 3578 
L 856 2369 
Q 1069 2541 1236 2614 
Q 1403 2688 1663 2688 
Q 2016 2688 2295 2484 
Q 2575 2281 2725 1954 
Q 2875 1628 2875 1288 
Q 2875 903 2686 575 
Q 2497 247 2172 53 
Q 1847 -141 1466 -141 
Q 1150 -141 886 21 
Q 622 184 470 459 
Q 319 734 319 1044 
Q 319 1188 412 1278 
Q 506 1369 647 1369 
Q 788 1369 883 1276 
Q 978 1184 978 1044 
Q 978 906 883 811 
Q 788 716 647 716 
Q 625 716 597 720 
Q 569 725 556 728 
z
" transform="scale(0.015625)"/>
     </defs>
     <use xlink:href="#Cmmi10-ae" transform="translate(0 0.390625)"/>
     <use xlink:href="#Cmr10-3d" transform="translate(81.474609 0.390625)"/>
     <use xlink:href="#Cmr10-30" transform="translate(176.71875 0.390625)"/>
     <use xlink:href="#Cmmi10-3a" transform="translate(226.71875 0.390625)"/>
     <use xlink:href="#Cmr10-35" transform="translate(254.404297 0.390625)"/>
    </g>
   </g>
   <g id="text_10">
    <!-- $\alpha = 0.2$ -->
    <g style="fill: #595959" transform="translate(99.163262 63.240592) scale(0.09 -0.09)">
     <defs>
      <path id="Cmr10-32" d="M 319 0 
L 319 172 
Q 319 188 331 206 
L 1325 1306 
Q 1550 1550 1690 1715 
Q 1831 1881 1968 2097 
Q 2106 2313 2186 2536 
Q 2266 2759 2266 3009 
Q 2266 3272 2169 3511 
Q 2072 3750 1880 3894 
Q 1688 4038 1416 4038 
Q 1138 4038 916 3870 
Q 694 3703 603 3438 
Q 628 3444 672 3444 
Q 816 3444 917 3347 
Q 1019 3250 1019 3097 
Q 1019 2950 917 2848 
Q 816 2747 672 2747 
Q 522 2747 420 2851 
Q 319 2956 319 3097 
Q 319 3338 409 3548 
Q 500 3759 670 3923 
Q 841 4088 1055 4175 
Q 1269 4263 1509 4263 
Q 1875 4263 2190 4108 
Q 2506 3953 2690 3670 
Q 2875 3388 2875 3009 
Q 2875 2731 2753 2481 
Q 2631 2231 2440 2026 
Q 2250 1822 1953 1562 
Q 1656 1303 1563 1216 
L 838 519 
L 1453 519 
Q 1906 519 2211 526 
Q 2516 534 2534 550 
Q 2609 631 2688 1141 
L 2875 1141 
L 2694 0 
L 319 0 
z
" transform="scale(0.015625)"/>
     </defs>
     <use xlink:href="#Cmmi10-ae" transform="translate(0 0.390625)"/>
     <use xlink:href="#Cmr10-3d" transform="translate(81.474609 0.390625)"/>
     <use xlink:href="#Cmr10-30" transform="translate(176.71875 0.390625)"/>
     <use xlink:href="#Cmmi10-3a" transform="translate(226.71875 0.390625)"/>
     <use xlink:href="#Cmr10-32" transform="translate(254.404297 0.390625)"/>
    </g>
   </g>
   <g id="text_11">
    <!-- $\alpha = 0.05$ -->
    <g style="fill: #595959" transform="translate(131.04887 85.796454) scale(0.09 -0.09)">
     <use xlink:href="#Cmmi10-ae" transform="translate(0 0.390625)"/>
     <use xlink:href="#Cmr10-3d" transform="translate(81.474609 0.390625)"/>
     <use xlink:href="#Cmr10-30" transform="translate(176.71875 0.390625)"/>
     <use xlink:href="#Cmmi10-3a" transform="translate(226.71875 0.390625)"/>
     <use xlink:href="#Cmr10-30" transform="translate(254.404297 0.390625)"/>
     <use xlink:href="#Cmr10-35" transform="translate(304.404297 0.390625)"/>
    </g>
   </g>
   <g id="text_12">
    <!-- $\alpha = 0.01$ -->
    <g style="fill: #595959" transform="translate(161.723993 110.607902) scale(0.09 -0.09)">
     <defs>
      <path id="Cmr10-31" d="M 594 0 
L 594 225 
Q 1394 225 1394 428 
L 1394 3788 
Q 1063 3628 556 3628 
L 556 3853 
Q 1341 3853 1741 4263 
L 1831 4263 
Q 1853 4263 1873 4245 
Q 1894 4228 1894 4206 
L 1894 428 
Q 1894 225 2694 225 
L 2694 0 
L 594 0 
z
" transform="scale(0.015625)"/>
     </defs>
     <use xlink:href="#Cmmi10-ae" transform="translate(0 0.390625)"/>
     <use xlink:href="#Cmr10-3d" transform="translate(81.474609 0.390625)"/>
     <use xlink:href="#Cmr10-30" transform="translate(176.71875 0.390625)"/>
     <use xlink:href="#Cmmi10-3a" transform="translate(226.71875 0.390625)"/>
     <use xlink:href="#Cmr10-30" transform="translate(254.404297 0.390625)"/>
     <use xlink:href="#Cmr10-31" transform="translate(304.404297 0.390625)"/>
    </g>
   </g>
   <g id="line2d_37">
    <path d="M 35.624531 132.385034 
L 42.40408 131.206894 
L 48.662125 129.91038 
L 54.92017 128.378723 
L 60.656712 126.735908 
L 65.871749 125.01646 
L 71.086787 123.054981 
L 75.780321 121.060102 
L 80.473855 118.82645 
L 85.167388 116.333427 
L 89.860922 113.561073 
L 94.032952 110.847319 
L 98.204982 107.887073 
L 102.377012 104.671593 
L 106.549043 101.195512 
L 111.242576 96.972454 
L 115.93611 92.425761 
L 120.629644 87.573828 
L 125.844682 81.863941 
L 132.102727 74.661435 
L 152.962877 50.296563 
L 157.134907 45.91941 
L 160.785434 42.37544 
L 164.43596 39.146195 
L 167.564982 36.656247 
L 170.694005 34.43958 
L 173.823027 32.504158 
L 176.95205 30.849823 
L 180.081073 29.468239 
L 183.210095 28.343403 
L 186.339118 27.452718 
L 189.989644 26.672501 
L 193.64017 26.124425 
L 197.8122 25.718164 
L 203.027238 25.439755 
L 210.328291 25.288743 
L 226.494907 25.24511 
L 243.704531 25.24469 
L 243.704531 25.24469 
" clip-path="url(#p5be92db10e)" style="fill: none; stroke: #1e90ff; stroke-width: 1.3; stroke-linecap: square"/>
   </g>
   <g id="line2d_38">
    <defs>
     <path id="mc08cc0608e" d="M 0 1.5 
C 0.397805 1.5 0.77937 1.341951 1.06066 1.06066 
C 1.341951 0.77937 1.5 0.397805 1.5 0 
C 1.5 -0.397805 1.341951 -0.77937 1.06066 -1.06066 
C 0.77937 -1.341951 0.397805 -1.5 0 -1.5 
C -0.397805 -1.5 -0.77937 -1.341951 -1.06066 -1.06066 
C -1.341951 -0.77937 -1.5 -0.397805 -1.5 0 
C -1.5 0.397805 -1.341951 0.77937 -1.06066 1.06066 
C -0.77937 1.341951 -0.397805 1.5 0 1.5 
z
" style="stroke: #b03a2e"/>
    </defs>
    <g clip-path="url(#p5be92db10e)">
     <use xlink:href="#mc08cc0608e" x="86.458018" y="30.883655" style="fill: #b03a2e; stroke: #b03a2e"/>
    </g>
   </g>
   <g id="line2d_39">
    <g clip-path="url(#p5be92db10e)">
     <use xlink:href="#mc08cc0608e" x="125.821266" y="30.883655" style="fill: #b03a2e; stroke: #b03a2e"/>
    </g>
   </g>
   <g id="line2d_40">
    <g clip-path="url(#p5be92db10e)">
     <use xlink:href="#mc08cc0608e" x="176.882357" y="30.883655" style="fill: #b03a2e; stroke: #b03a2e"/>
    </g>
   </g>
   <g id="line2d_41">
    <g clip-path="url(#p5be92db10e)">
     <use xlink:href="#mc08cc0608e" x="233.489689" y="30.883655" style="fill: #b03a2e; stroke: #b03a2e"/>
    </g>
   </g>
   <g id="line2d_42">
    <defs>
     <path id="mde5497b82b" d="M -3.25 3.25 
L 3.25 3.25 
L 3.25 -3.25 
L -3.25 -3.25 
z
" style="stroke: #737373; stroke-width: 0.5; stroke-linejoin: miter"/>
    </defs>
    <g clip-path="url(#p5be92db10e)">
     <use xlink:href="#mde5497b82b" x="35.624531" y="132.385034" style="fill: #f4f9ff; stroke: #737373; stroke-width: 0.5; stroke-linejoin: miter"/>
    </g>
   </g>
   <g id="line2d_43">
    <defs>
     <path id="m699c0fab0a" d="M -3.25 3.25 
L 3.25 3.25 
L 3.25 -3.25 
L -3.25 -3.25 
z
" style="stroke: #737373; stroke-width: 0.5; stroke-linejoin: miter"/>
    </defs>
    <g clip-path="url(#p5be92db10e)">
     <use xlink:href="#m699c0fab0a" x="59.697121" y="127.028017" style="fill: #e9f4ff; stroke: #737373; stroke-width: 0.5; stroke-linejoin: miter"/>
    </g>
   </g>
   <g id="line2d_44">
    <defs>
     <path id="m836c5d5c06" d="M -3.25 3.25 
L 3.25 3.25 
L 3.25 -3.25 
L -3.25 -3.25 
z
" style="stroke: #737373; stroke-width: 0.5; stroke-linejoin: miter"/>
    </defs>
    <g clip-path="url(#p5be92db10e)">
     <use xlink:href="#m836c5d5c06" x="91.519353" y="112.51117" style="fill: #cce6ff; stroke: #737373; stroke-width: 0.5; stroke-linejoin: miter"/>
    </g>
   </g>
   <g id="line2d_45">
    <defs>
     <path id="mfb422da8ea" d="M -3.25 3.25 
L 3.25 3.25 
L 3.25 -3.25 
L -3.25 -3.25 
z
" style="stroke: #737373; stroke-width: 0.5; stroke-linejoin: miter"/>
    </defs>
    <g clip-path="url(#p5be92db10e)">
     <use xlink:href="#mfb422da8ea" x="115.591942" y="92.769829" style="fill: #a5d2ff; stroke: #737373; stroke-width: 0.5; stroke-linejoin: miter"/>
    </g>
   </g>
   <g id="line2d_46">
    <defs>
     <path id="m761433a6a6" d="M -3.25 3.25 
L 3.25 3.25 
L 3.25 -3.25 
L -3.25 -3.25 
z
" style="stroke: #737373; stroke-width: 0.5; stroke-linejoin: miter"/>
    </defs>
    <g clip-path="url(#p5be92db10e)">
     <use xlink:href="#m761433a6a6" x="171.486763" y="33.922491" style="fill: #2f99ff; stroke: #737373; stroke-width: 0.5; stroke-linejoin: miter"/>
    </g>
   </g>
   <g id="line2d_47">
    <defs>
     <path id="m60182e3b0e" d="M -3.25 3.25 
L 3.25 3.25 
L 3.25 -3.25 
L -3.25 -3.25 
z
" style="stroke: #737373; stroke-width: 0.5; stroke-linejoin: miter"/>
    </defs>
    <g clip-path="url(#p5be92db10e)">
     <use xlink:href="#m60182e3b0e" x="219.631942" y="25.248643" style="fill: #1e90ff; stroke: #737373; stroke-width: 0.5; stroke-linejoin: miter"/>
    </g>
   </g>
  </g>
 </g>
 <defs>
  <clipPath id="p5be92db10e">
   <rect x="35.624531" y="7.2" width="208.08" height="130.824"/>
  </clipPath>
 </defs>
</svg>
